<?xml version="1.0" encoding="UTF-8"?>
<svg version="1.1" xmlns="http://www.w3.org/2000/svg" width="2000" height="2000">
<path d="M0 0 C660 0 1320 0 2000 0 C2000 660 2000 1320 2000 2000 C1340 2000 680 2000 0 2000 C0 1340 0 680 0 0 Z " fill="#0F0F0F" transform="translate(0,0)"/>
<path d="M0 0 C0.71297149 -0.00581376 1.42594298 -0.01162753 2.16051966 -0.01761746 C4.54436203 -0.03218966 6.92717017 -0.01834569 9.31100464 -0.00457001 C11.03974845 -0.00918022 12.76848834 -0.01553395 14.49722004 -0.02347898 C19.24452802 -0.04018288 23.99151449 -0.03192065 28.73882365 -0.01953411 C33.86138129 -0.01048867 38.98388342 -0.02445196 44.10643005 -0.0354538 C54.14703554 -0.0532581 64.18752151 -0.04938785 74.22813171 -0.03780323 C82.40181294 -0.02876465 90.57546071 -0.02754681 98.74914551 -0.0318985 C99.91322447 -0.03251143 101.07730344 -0.03312436 102.27665752 -0.03375587 C104.64188012 -0.03503484 107.00710272 -0.0363317 109.3723253 -0.03764623 C131.57030604 -0.04906074 153.76822079 -0.03593096 175.9661907 -0.01444477 C194.95746404 0.00337056 213.94863938 0.00036989 232.93991089 -0.01811981 C255.02199668 -0.03960884 277.10402429 -0.04790271 299.18611908 -0.03567076 C301.54991149 -0.03439669 303.91370391 -0.03313921 306.27749634 -0.0318985 C307.44028799 -0.0312814 308.60307964 -0.03066429 309.80110741 -0.03002849 C317.93993922 -0.02659535 326.07873378 -0.03236087 334.21755981 -0.04181671 C344.17408035 -0.05313011 354.13047504 -0.04980554 364.08698148 -0.02869374 C369.15410752 -0.01829859 374.22102515 -0.01385909 379.28814888 -0.02729034 C411.95136866 -0.10647226 444.33044001 1.33773062 475.5776062 11.82074738 C477.60375806 12.4982313 479.63633019 13.15320132 481.66989136 13.80805206 C522.54828012 27.27553122 557.08653893 54.11618216 578.61911011 91.50336456 C579.26493042 92.60680206 579.91075073 93.71023956 580.57614136 94.84711456 C589.86491435 111.17874582 596.34265723 129.24143062 600.61911011 147.50336456 C600.7978064 148.26084991 600.97650269 149.01833527 601.16061401 149.79877472 C607.46226686 177.18563277 608.06301989 204.36902552 607.99662507 232.31308734 C607.98766573 237.49168364 607.9962598 242.67025783 608.00248718 247.84885406 C608.01190883 257.95634587 608.00543456 268.06376559 607.99322424 278.17125199 C607.97951056 289.96843758 607.98125023 301.76560657 607.98335757 313.56279811 C607.98653759 334.62364939 607.97493536 355.68446671 607.95529175 376.74530792 C607.93627974 397.13464135 607.92920862 417.52393501 607.93478394 437.91327667 C607.94085419 460.17814508 607.9406428 482.44299606 607.9292981 504.70786303 C607.92809095 507.08578439 607.92688496 509.46370576 607.92568016 511.84162712 C607.92477485 513.5961028 607.92477485 513.5961028 607.92385126 515.38602242 C607.91998768 523.59037401 607.9203596 531.79471907 607.92226601 539.99907112 C607.92439731 550.00662208 607.91909318 560.01413839 607.90465245 570.02167962 C607.89745485 575.11802283 607.89329145 580.21431582 607.89789581 585.31066322 C607.91685846 609.27039254 607.59157821 632.67961461 603.17941284 656.30780792 C602.80331901 658.33359167 602.44790625 660.36232051 602.09371948 662.39203644 C597.7708802 686.44627228 588.8759324 710.93606577 575.61911011 731.50336456 C575.17873413 732.18801788 574.73835815 732.8726712 574.28463745 733.57807159 C555.23101975 762.73176351 528.74647915 783.40044702 497.61911011 798.50336456 C498.13626695 804.43987613 499.09163325 810.01492343 500.68161011 815.75336456 C500.89640015 816.55073029 501.11119019 817.34809601 501.33248901 818.16962433 C502.69062212 823.18756379 504.08852819 828.19447484 505.48239136 833.20258331 C506.15327507 835.61525733 506.82383983 838.02802006 507.49411011 840.44086456 C507.83482544 841.66660187 508.17554077 842.89233917 508.52658081 844.15522003 C511.57115286 855.18042402 514.35346724 866.26309171 517.09567261 877.36664581 C518.55290946 883.26426352 520.08607231 889.1355485 521.67379761 894.99945831 C522.35676137 897.5309397 523.029132 900.06365184 523.68942261 902.60102081 C525.87867267 911.00796331 528.13639562 919.39167644 530.46871948 927.7602005 C534.22590242 941.24669813 537.73906021 954.77527596 541.09567261 968.36664581 C542.55290946 974.26426352 544.08607231 980.1355485 545.67379761 985.99945831 C546.35676137 988.5309397 547.029132 991.06365184 547.68942261 993.60102081 C549.87867267 1002.00796331 552.13639562 1010.39167644 554.46871948 1018.7602005 C558.22590242 1032.24669813 561.73906021 1045.77527596 565.09567261 1059.36664581 C566.55290946 1065.26426352 568.08607231 1071.1355485 569.67379761 1076.99945831 C570.35676137 1079.5309397 571.029132 1082.06365184 571.68942261 1084.60102081 C573.87867267 1093.00796331 576.13639562 1101.39167644 578.46871948 1109.7602005 C582.52773396 1124.33012963 586.27772579 1138.95740347 589.90670776 1153.63959503 C590.76286984 1157.08126095 591.64699432 1160.51292386 592.55661011 1163.94086456 C592.84922729 1165.04430206 593.14184448 1166.14773956 593.44332886 1167.28461456 C594.4490097 1170.96926202 595.54671524 1174.62470423 596.63864136 1178.28461456 C606.02435392 1210.20511558 606.02435392 1210.20511558 601.05661011 1220.75336456 C597.3463588 1224.93928911 593.19092617 1227.48040936 587.61911011 1228.50336456 C585.29123939 1228.59991259 582.96077068 1228.63830769 580.63090515 1228.64380646 C579.5756219 1228.64826314 579.5756219 1228.64826314 578.4990198 1228.65280986 C576.14165828 1228.66148123 573.78434764 1228.66300379 571.42697144 1228.66449738 C569.73657117 1228.66912672 568.04617194 1228.67415154 566.35577393 1228.67954254 C561.76257817 1228.69265882 557.16939702 1228.69911019 552.57618546 1228.7035532 C549.7049752 1228.70648565 546.83376891 1228.71059082 543.96256065 1228.71505737 C534.97481168 1228.72873132 525.98707183 1228.73839804 516.99931318 1228.74225926 C506.63278291 1228.74673753 496.26638466 1228.76427511 485.89989454 1228.79325986 C477.88190244 1228.81489794 469.86394743 1228.82496471 461.84592646 1228.82630038 C457.05967074 1228.82734704 452.27353914 1228.83322505 447.48731422 1228.85112 C442.98192884 1228.86763707 438.47676037 1228.86973857 433.97135544 1228.86098099 C432.32225525 1228.86021251 430.67314323 1228.86452824 429.02407265 1228.87443924 C409.85093684 1228.98286654 409.85093684 1228.98286654 402.80661011 1223.19086456 C395.12921423 1213.75863534 393.02178914 1203.51935126 390.18161011 1191.87836456 C389.56136111 1189.36643708 388.94027583 1186.85471592 388.31832886 1184.34320831 C388.02361694 1183.15195343 387.72890503 1181.96069855 387.42526245 1180.73334503 C386.19737031 1175.81359547 384.89399168 1170.91722059 383.56832886 1166.02289581 C382.87158745 1163.43950485 382.18659481 1160.85465441 381.51364136 1158.26508331 C379.48002725 1150.44735789 377.38915368 1142.65255986 375.17868042 1134.88275909 C371.90259229 1123.36142115 368.90696697 1111.79411479 366.04229736 1100.16562653 C363.84349024 1091.25081082 361.50588781 1082.40014335 358.90792847 1073.59223175 C356.38420579 1064.9225021 354.25807671 1056.15609296 352.09860229 1047.39057159 C350.08233635 1039.21729016 348.00132986 1031.07935132 345.61911011 1023.00336456 C342.8262743 1013.53534427 340.4592891 1003.97283407 338.09860229 994.39057159 C336.08233635 986.21729016 334.00132986 978.07935132 331.61911011 970.00336456 C328.8262743 960.53534427 326.4592891 950.97283407 324.09860229 941.39057159 C322.08233635 933.21729016 320.00132986 925.07935132 317.61911011 917.00336456 C314.8262743 907.53534427 312.4592891 897.97283407 310.09860229 888.39057159 C308.08233377 880.2172797 306.00112053 872.07942055 303.61911011 864.00336456 C300.93533569 854.89706616 298.60172182 845.71361806 296.30661011 836.50336456 C296.12944458 835.79365509 295.95227905 835.08394562 295.76974487 834.3527298 C294.29101419 828.41919368 292.81872002 822.50141414 291.61911011 816.50336456 C256.63911011 816.50336456 221.65911011 816.50336456 185.61911011 816.50336456 C185.64005737 828.38642609 185.66100464 840.26948761 185.68258667 852.51264191 C185.74678457 890.53258975 185.7912791 928.5525378 185.82337143 966.57252576 C185.82837426 972.47802034 185.83355155 978.38351476 185.83883667 984.28900909 C185.83988591 985.46468821 185.84093515 986.64036733 185.84201619 987.85167308 C185.85942208 1006.8888635 185.89096082 1025.9260056 185.92772129 1044.96316735 C185.96512553 1064.49660698 185.98734488 1084.03002131 185.99546409 1103.56349528 C186.00095291 1115.61699091 186.01828989 1127.67034999 186.05077597 1139.72380359 C186.07191745 1147.98896708 186.07831096 1156.25405996 186.07311562 1164.51924853 C186.07055329 1169.28805854 186.0744852 1174.0566299 186.09593201 1178.82539749 C186.11543669 1183.19427911 186.11635475 1187.56276221 186.10270569 1191.9316624 C186.10101944 1193.50922688 186.10606046 1195.08681651 186.11864284 1196.66433172 C186.25499441 1214.82027773 186.25499441 1214.82027773 180.3133719 1222.10405672 C172.01891649 1229.78139967 161.56436415 1228.93421771 151.06466675 1228.89154816 C149.3835262 1228.89561751 147.70238833 1228.90096143 146.02125549 1228.90747833 C141.47161612 1228.9211155 136.92218161 1228.91586791 132.37253881 1228.90634108 C127.60148791 1228.89872455 122.83045408 1228.90579573 118.05940247 1228.91049957 C110.04745346 1228.91595185 102.03558751 1228.90877991 94.02365112 1228.89447784 C84.7748133 1228.87815793 75.52617395 1228.88343718 66.27734095 1228.89995706 C58.32294747 1228.91359362 50.36861357 1228.91548082 42.41421217 1228.90764105 C37.66939413 1228.90297574 32.92466922 1228.90230807 28.17985725 1228.91225052 C23.71707103 1228.92094933 19.25453935 1228.91484527 14.79178047 1228.89756775 C13.15881268 1228.89361819 11.52582328 1228.89471059 9.89286423 1228.90135574 C-8.75320264 1228.97020823 -8.75320264 1228.97020823 -15.68557739 1223.77680206 C-16.46288208 1222.8370755 -16.46288208 1222.8370755 -17.25588989 1221.87836456 C-17.78956177 1221.26734894 -18.32323364 1220.65633331 -18.87307739 1220.02680206 C-22.68842878 1213.64152487 -23.82617808 1207.11000375 -23.75808805 1199.77318197 C-23.76241923 1198.93724742 -23.76675042 1198.10131287 -23.77121285 1197.24004696 C-23.78205107 1194.44480225 -23.77159364 1191.65005397 -23.76120663 1188.85481358 C-23.7646405 1186.81959391 -23.76938755 1184.78437612 -23.77532759 1182.74916223 C-23.78786604 1177.14014626 -23.78167424 1171.5312819 -23.77249392 1165.92226515 C-23.76579898 1159.82624688 -23.77644276 1153.73025515 -23.78488976 1147.63424248 C-23.7972811 1136.94472311 -23.79856067 1126.25525336 -23.79233932 1115.56573296 C-23.78571205 1104.09615031 -23.785586 1092.62659515 -23.79338646 1081.15701294 C-23.79387446 1080.43253986 -23.79436246 1079.70806677 -23.79486524 1078.96163996 C-23.79687342 1076.01096459 -23.79892653 1073.06028926 -23.80103698 1070.10961397 C-23.82243962 1040.15454074 -23.82449114 1010.19948783 -23.81897994 980.24440887 C-23.81822424 976.10508722 -23.81749662 971.96576557 -23.81679797 967.82644391 C-23.81665888 967.00428572 -23.81651979 966.18212754 -23.81637648 965.33505547 C-23.81342471 947.11813706 -23.81643646 928.90122109 -23.82069426 910.68430313 C-23.82127642 908.1914259 -23.82184526 905.69854868 -23.82240989 903.20567145 C-23.82392483 896.52320533 -23.82545174 889.84073922 -23.8270029 883.15827311 C-23.83776033 836.50660011 -23.84246067 789.85492939 -23.83453274 743.20325565 C-23.83431028 741.8840609 -23.83431028 741.8840609 -23.83408333 740.53821575 C-23.83242431 730.73113536 -23.83067473 720.92405498 -23.82889032 711.1169746 C-23.82872929 710.23152937 -23.82856827 709.34608413 -23.82840236 708.43380723 C-23.82709454 701.24746293 -23.82709454 701.24746293 -23.82644117 697.69136458 C-23.8160484 641.04722458 -23.82381832 584.40311564 -23.84744263 527.7589798 C-23.85338594 513.4851256 -23.85927746 499.21127138 -23.86485195 484.93741703 C-23.86519572 484.05854351 -23.86553949 483.17966999 -23.86589368 482.27416393 C-23.87641934 455.19204263 -23.88201499 428.10992392 -23.8824091 401.02780056 C-23.88242188 400.17769487 -23.88243466 399.32758919 -23.88244783 398.45172272 C-23.88267611 379.79107945 -23.88167014 361.1304364 -23.87953878 342.46979326 C-23.878784 335.79295349 -23.87810579 329.11611372 -23.87745863 322.43927394 C-23.87729593 320.7782232 -23.87712827 319.11717246 -23.87695561 317.45612172 C-23.87423326 290.97755088 -23.88279362 264.49899888 -23.89680971 238.02043209 C-23.9112096 210.61590163 -23.91077721 183.21140704 -23.89343499 155.8068778 C-23.89163078 152.86495765 -23.88989059 149.92303747 -23.88820076 146.98111725 C-23.88778026 146.2591123 -23.88735976 145.53710736 -23.88692651 144.79322348 C-23.88062519 133.35422426 -23.88773819 121.91527428 -23.90040996 110.476282 C-23.91258318 99.23226904 -23.91016564 87.98833323 -23.89318965 76.74431976 C-23.8845155 70.72794132 -23.88223619 64.71174369 -23.89745896 58.6953742 C-23.9111712 53.22457674 -23.90655289 47.75411601 -23.88717378 42.28333849 C-23.88343109 40.31420542 -23.88641932 38.34504539 -23.89688686 36.37593659 C-24.0014814 15.24788373 -24.0014814 15.24788373 -17.06838989 6.62836456 C-11.32367471 2.08603163 -7.38918573 0.00379183 0 0 Z " fill="#FEFEFE" transform="translate(707.3808898925781,263.4966354370117)"/>
<path d="M0 0 C6.51344657 0 12.92535332 0.07051781 19.4140625 0.4453125 C20.72796967 0.52031479 20.72796967 0.52031479 22.06842041 0.59683228 C100.59006626 5.22858662 183.73995772 22.40411101 242.51611328 78.58349609 C243.50417775 79.52669288 244.49735893 80.4645589 245.49560547 81.39697266 C257.83373438 92.94012938 267.61483816 106.36119856 276 121 C276.98226562 122.68416016 276.98226562 122.68416016 277.984375 124.40234375 C300.24297879 163.61911347 305.32257113 209.76880429 305.27124023 254.02563477 C305.2756387 256.56767949 305.28094489 259.10972278 305.28707886 261.65176392 C305.29849074 267.08290711 305.3042256 272.5140077 305.30496025 277.94516182 C305.30629945 285.81904055 305.32152749 293.69284996 305.34045542 301.56670391 C305.37115645 314.37673604 305.39538676 327.18676994 305.41333008 339.99682617 C305.41440276 340.76025489 305.41547544 341.5236836 305.41658062 342.31024652 C305.42840075 350.82719076 305.4386101 359.3441357 305.44702148 367.86108398 C305.45009599 370.95190432 305.45318471 374.04272463 305.45629883 377.13354492 C305.45744684 378.27771581 305.45744684 378.27771581 305.45861804 379.44500125 C305.47175036 392.21493225 305.49645299 404.9848125 305.53004223 417.75470585 C305.55018756 425.59849954 305.56064186 433.4421843 305.55805302 441.28600406 C305.55688484 447.30780034 305.57117668 453.32946236 305.59086227 459.35123062 C305.59641552 461.80199124 305.59699028 464.25276959 305.59192467 466.70353127 C305.54204316 493.68546312 308.81333674 519.61995167 321 544 C321.52207031 545.04542969 322.04414062 546.09085938 322.58203125 547.16796875 C338.15453295 575.85016774 368.53377238 592.18818036 398.84570312 601.32519531 C429.69934943 610.12511142 459.7946707 611.96111841 492 613 C492 650.29 492 687.58 492 726 C483.09 726.33 474.18 726.66 465 727 C458.38133973 727.7068255 451.84011191 728.41981891 445.26293945 729.36425781 C442.53753351 729.75356632 439.80945209 730.11623949 437.08007812 730.4765625 C421.40736807 732.61443776 405.84499213 735.86388246 390.9375 741.25 C390.12643799 741.54028076 389.31537598 741.83056152 388.47973633 742.12963867 C356.68957452 753.81787576 332.61919284 771.60138852 317.33984375 802.33984375 C314.33814021 808.91902516 312.12615843 815.52751559 310.25 822.5 C310.05124268 823.23436279 309.85248535 823.96872559 309.64770508 824.7253418 C305.67943212 840.35520045 305.70531012 855.74618843 305.71289062 871.76586914 C305.70685825 874.36437187 305.69993195 876.96287266 305.69218445 879.56137085 C305.67680908 885.13613637 305.66833702 890.71087683 305.66447449 896.2856617 C305.65868982 904.36847926 305.64004276 912.45123011 305.61803395 920.53401797 C305.58239647 933.68176599 305.55405229 946.82951781 305.53173828 959.97729492 C305.53040329 960.76236353 305.5290683 961.54743213 305.52769285 962.35629069 C305.51827081 967.92502682 305.50910902 973.49376336 305.5 979.0625 C305.48960829 985.4117028 305.47908766 991.76090535 305.46826172 998.11010742 C305.46693098 998.89208365 305.46560023 999.67405987 305.46422917 1000.47973234 C305.44170647 1013.57374984 305.41146823 1026.66773897 305.37586927 1039.76172727 C305.35435272 1047.81155245 305.3396256 1055.86133349 305.33403051 1063.91118579 C305.32923416 1070.09803952 305.31436897 1076.28483304 305.29603004 1082.47166061 C305.2902057 1084.98972332 305.28767093 1087.5077964 305.28886986 1090.02586555 C305.29557782 1109.75066995 304.18425269 1129.05686774 300.75 1148.5 C300.53384033 1149.72775146 300.31768066 1150.95550293 300.0949707 1152.22045898 C294.3892006 1183.41810463 282.57616534 1213.83531334 263 1239 C262.30003906 1239.91007812 261.60007812 1240.82015625 260.87890625 1241.7578125 C254.83229947 1249.46635213 248.60685189 1256.88425958 241.09765625 1263.20703125 C239.65671093 1264.43867725 238.24886467 1265.70978843 236.87109375 1267.01171875 C207.59124604 1294.60710822 167.43904699 1312.2764983 129.20751953 1323.35839844 C127.46043926 1323.86617625 125.7174691 1324.38809348 123.97607422 1324.91503906 C115.19576741 1327.51927286 106.36857787 1329.44894425 97.375 1331.125 C96.04676926 1331.37835253 94.71864384 1331.63225783 93.390625 1331.88671875 C74.70206872 1335.43494365 56.22208342 1337.77929174 37.25 1339.125 C35.4868042 1339.25648438 35.4868042 1339.25648438 33.68798828 1339.390625 C22.3915477 1340.14850875 11.41090107 1340 0 1340 C0 1303.37 0 1266.74 0 1229 C11.22 1228.01 22.44 1227.02 34 1226 C50.04382472 1223.3139298 65.53767652 1219.98615764 81 1215 C82.04559082 1214.66645508 82.04559082 1214.66645508 83.11230469 1214.32617188 C99.33372851 1209.03228295 115.91027591 1201.00115832 129 1190 C129.99128906 1189.16984375 130.98257812 1188.3396875 132.00390625 1187.484375 C156.17901468 1166.6103462 167.37985647 1135.19664334 170 1104 C170.13612983 1100.35982135 170.14199298 1096.7236914 170.13803101 1093.08125305 C170.14085229 1092.01511141 170.14367357 1090.94896976 170.14658034 1089.85052079 C170.15488081 1086.29527786 170.15626071 1082.74006626 170.15771484 1079.18481445 C170.16238663 1076.62808139 170.16753079 1074.07134916 170.17311096 1071.51461792 C170.18437119 1066.01452487 170.19286589 1060.51443819 170.19923019 1055.01433754 C170.20960381 1046.29967383 170.23018185 1037.58504764 170.25234985 1028.8704071 C170.25982883 1025.88153947 170.26724277 1022.89267167 170.27463722 1019.90380383 C170.27741307 1018.78342839 170.27741307 1018.78342839 170.280245 1017.6404191 C170.30114912 1009.14822251 170.31998544 1000.65602177 170.33789062 992.16381836 C170.33952881 991.38814702 170.34116699 990.61247568 170.34285481 989.81329914 C170.36907858 977.27397885 170.38775755 964.73465565 170.40448253 952.19531963 C170.42198069 939.28337268 170.4509094 926.37148255 170.4893719 913.45958108 C170.51261078 905.51832787 170.5267518 897.57716737 170.52869953 889.6358799 C170.53108336 883.52629633 170.54910706 877.41684509 170.57256889 871.3073082 C170.57969706 868.82192475 170.58189485 866.33652083 170.57846642 863.85112953 C170.53851976 829.35117196 175.75148133 794.40534838 193 764 C193.36963867 763.34725098 193.73927734 762.69450195 194.12011719 762.02197266 C203.31023498 746.06571818 214.87725238 731.01847283 229.5 719.6875 C230.09820557 719.22239014 230.69641113 718.75728027 231.31274414 718.27807617 C262.46353858 694.36543904 299.26885617 680.68056776 338 675 C338 671.7 338 668.4 338 665 C337.04867188 665.04511719 336.09734375 665.09023437 335.1171875 665.13671875 C330.28012141 665.13065118 325.79556871 663.98067843 321.125 662.8125 C320.19953369 662.58473877 319.27406738 662.35697754 318.32055664 662.12231445 C315.54300761 661.42965824 312.77065766 660.71969089 310 660 C309.23768066 659.80245117 308.47536133 659.60490234 307.68994141 659.40136719 C262.56973847 647.47505014 219.21101368 621.45799498 195.11743164 580.57836914 C186.38634935 565.36278743 179.51577455 548.22057726 176 531 C175.74605469 529.77152344 175.49210937 528.54304687 175.23046875 527.27734375 C174.41949247 523.19434457 173.64528197 519.11275712 173 515 C172.83472777 513.99381213 172.66945555 512.98762426 172.49917507 511.95094585 C170.62534111 499.07623129 170.71398009 486.27068775 170.72875977 473.2824707 C170.72436513 470.71322974 170.71906031 468.1439902 170.71292114 465.57475281 C170.70095447 460.06931841 170.69577235 454.56391277 170.69503975 449.05846596 C170.69370415 441.07594867 170.67850559 433.09350024 170.65954458 425.11100747 C170.62879417 412.12520169 170.60458859 399.13939415 170.58666992 386.15356445 C170.5850609 384.99111582 170.5850609 384.99111582 170.58341938 383.80518337 C170.57160873 375.16669363 170.56140004 366.52820318 170.55297852 357.88970947 C170.5499044 354.75923664 170.54681562 351.62876381 170.54370117 348.49829102 C170.54255316 347.33955633 170.54255316 347.33955633 170.54138196 346.15741286 C170.52824601 333.22152391 170.50353406 320.28568501 170.46995777 307.34983319 C170.44980968 299.39965939 170.43935855 291.44959307 170.44194698 283.49939355 C170.44311593 277.39039338 170.42881371 271.28151486 170.40913773 265.17254829 C170.40358717 262.6867356 170.40300715 260.20090543 170.40807533 257.71509171 C170.44157716 239.34172139 169.68739803 220.96273216 164.3125 203.25 C164.05758789 202.39204834 163.80267578 201.53409668 163.54003906 200.65014648 C154.61888198 171.85356804 136.11471335 149.83479468 109.50097656 135.66992188 C104.08401295 132.92476817 98.58659373 130.37977498 93 128 C92.20634033 127.6596875 91.41268066 127.319375 90.5949707 126.96875 C84.56934418 124.46483987 78.50724372 122.60685346 72.1875 121 C71.19339111 120.74508789 70.19928223 120.49017578 69.17504883 120.22753906 C46.09567164 114.4270649 23.89754361 112.13797827 0 111 C0 74.37 0 37.74 0 0 Z " fill="#5BE0E5" transform="translate(1441,395)"/>
<path d="M0 0 C0 36.3 0 72.6 0 110 C-13.86 111.485 -13.86 111.485 -28 113 C-69.8625809 117.73023513 -116.87419449 131.32875713 -144.36816406 165.7109375 C-165.57742781 193.80267756 -169.63880022 228.45714263 -169.51416016 262.63500977 C-169.51963781 265.19398924 -169.52688893 267.75296543 -169.53575134 270.31193542 C-169.55094469 275.76653366 -169.55446666 281.22092877 -169.54698563 286.67553902 C-169.53634578 294.57883155 -169.55001151 302.48194871 -169.56945018 310.3852179 C-169.60060857 323.23866481 -169.61577804 336.09207406 -169.61914062 348.94555664 C-169.61934461 349.71076321 -169.6195486 350.47596977 -169.61975877 351.26436441 C-169.61996214 352.03051939 -169.62016551 352.79667437 -169.62037504 353.58604616 C-169.6233 364.46663089 -169.63011974 375.34720398 -169.64160156 386.2277832 C-169.64280951 387.37825066 -169.64280951 387.37825066 -169.64404185 388.55195988 C-169.65783385 401.37622251 -169.67964231 414.20046454 -169.7054714 427.02470821 C-169.72082606 434.9025496 -169.72814808 442.78032326 -169.72467647 450.65817934 C-169.72238044 456.69561728 -169.72979413 462.73300292 -169.74055672 468.77043343 C-169.7432239 471.2325579 -169.74251456 473.69468889 -169.73804665 476.15681076 C-169.70987808 492.84126887 -170.44152424 508.70002014 -174.3125 525 C-174.5305127 525.93150879 -174.74852539 526.86301758 -174.97314453 527.82275391 C-185.1351166 570.33354862 -208.00013837 606.88070854 -245.42138672 630.53027344 C-273.18303434 647.51023299 -304.68834202 658.78929011 -337 663 C-337 666.3 -337 669.6 -337 673 C-335.72125 673.0825 -334.4425 673.165 -333.125 673.25 C-287.08184438 678.16041964 -237.30941329 702.00867166 -207.48193359 737.82275391 C-178.60675898 774.2164064 -169.31958297 818.34002944 -169.48583984 863.93798828 C-169.48036041 866.50549232 -169.47310827 869.07299307 -169.46424866 871.64048767 C-169.44795962 877.10757814 -169.44552586 882.57452221 -169.45301437 888.04162979 C-169.4636661 895.96405066 -169.44997421 903.88629695 -169.43054982 911.80869459 C-169.39940863 924.69538039 -169.38422364 937.58202865 -169.38085938 950.46875 C-169.38055339 951.6189558 -169.38055339 951.6189558 -169.38024123 952.79239808 C-169.38003786 953.56015196 -169.37983449 954.32790583 -169.37962496 955.11892498 C-169.37669946 966.024276 -169.36987798 976.92961541 -169.35839844 987.83496094 C-169.35759314 988.60383539 -169.35678785 989.37270983 -169.35595815 990.16488351 C-169.34216268 1003.02424462 -169.3203525 1015.88358521 -169.2945286 1028.74292743 C-169.27918238 1036.63932434 -169.27184982 1044.53565374 -169.27532353 1052.43206529 C-169.27762095 1058.48390039 -169.27020117 1064.53568338 -169.25944328 1070.58751106 C-169.25677793 1073.05405487 -169.25748225 1075.52060518 -169.26195335 1077.98714638 C-169.28416089 1091.15585952 -168.9824349 1103.96502996 -167 1117 C-166.84316069 1118.04686836 -166.84316069 1118.04686836 -166.68315291 1119.11488557 C-163.09786302 1142.97122721 -153.74804216 1165.45184663 -137 1183 C-136.20952271 1183.84751831 -136.20952271 1183.84751831 -135.40307617 1184.7121582 C-131.17422951 1189.11954411 -126.66791233 1192.60095337 -121.5625 1195.9375 C-120.38288696 1196.71226685 -120.38288696 1196.71226685 -119.17944336 1197.50268555 C-95.21129477 1212.96841583 -68.03654403 1220.84025555 -40 1225 C-39.33500488 1225.09909668 -38.67000977 1225.19819336 -37.98486328 1225.30029297 C-25.31273555 1227.12377556 -12.85792978 1227.44095957 0 1228 C0 1264.3 0 1300.6 0 1338 C-35.40003664 1338 -35.40003664 1338 -47.625 1336.875 C-48.35505249 1336.81097992 -49.08510498 1336.74695984 -49.83728027 1336.68099976 C-113.68438106 1331.00315007 -182.73022282 1313.04237039 -232 1270 C-232.77601563 1269.33226562 -233.55203125 1268.66453125 -234.3515625 1267.9765625 C-236.94578623 1265.69529274 -239.47973673 1263.36274681 -242 1261 C-242.49371094 1260.54028809 -242.98742187 1260.08057617 -243.49609375 1259.60693359 C-269.816258 1234.90306372 -287.69581166 1201.47105947 -296 1166.4375 C-296.25418701 1165.36830322 -296.50837402 1164.29910645 -296.77026367 1163.19750977 C-298.58478713 1155.32196197 -300.06433281 1147.42164872 -301.3125 1139.4375 C-301.47169922 1138.42937256 -301.63089844 1137.42124512 -301.79492188 1136.38256836 C-304.28874084 1119.44355023 -304.15066264 1102.43717562 -304.15771484 1085.35839844 C-304.16239207 1082.79738784 -304.1675371 1080.23637806 -304.17311096 1077.67536926 C-304.18432819 1072.18794547 -304.19284199 1066.70052791 -304.19923019 1061.21309662 C-304.20964182 1052.51942474 -304.23022576 1043.82578994 -304.25234985 1035.13214111 C-304.2598268 1032.14626706 -304.26724093 1029.16039284 -304.27463722 1026.17451859 C-304.27648779 1025.42859974 -304.27833835 1024.6826809 -304.280245 1023.91415845 C-304.30110959 1015.45140218 -304.3199681 1006.98864188 -304.33789062 998.52587891 C-304.33952881 997.75364145 -304.34116699 996.981404 -304.34285481 996.18576542 C-304.36912804 983.67787171 -304.38778412 971.16997509 -304.40448253 958.66206548 C-304.42196929 945.77024667 -304.45087908 932.8784849 -304.4893719 919.98671174 C-304.51261577 912.06264579 -304.52675224 904.13867284 -304.52869953 896.21457252 C-304.53107968 890.12733466 -304.54908035 884.04023008 -304.57256889 877.95303917 C-304.57970659 875.47487255 -304.58189008 872.99668535 -304.57846642 870.51851082 C-304.55750111 852.44274063 -305.48598097 834.68064166 -310.6875 817.25 C-310.94023682 816.38713379 -311.19297363 815.52426758 -311.45336914 814.63525391 C-314.03065424 806.24881313 -317.64235688 798.59549349 -322 791 C-322.5775 789.98421875 -323.155 788.9684375 -323.75 787.921875 C-327.77872616 781.24463442 -332.62587914 775.62633592 -338 770 C-338.52851563 769.39671875 -339.05703125 768.7934375 -339.6015625 768.171875 C-359.48698174 746.34890209 -394.22700952 736.45851498 -422 731 C-423.21079224 730.74464478 -423.21079224 730.74464478 -424.44604492 730.48413086 C-446.38759448 725.89494914 -468.61987931 725.67818548 -491 725 C-491 687.71 -491 650.42 -491 612 C-482.09 611.67 -473.18 611.34 -464 611 C-457.61077368 610.37575095 -451.2859298 609.70589554 -444.9375 608.8125 C-443.73997101 608.64868835 -443.73997101 608.64868835 -442.51824951 608.48156738 C-401.74420328 602.86930461 -355.4323161 590.6934054 -328.75 556.75 C-308.33732133 529.52234806 -304.36027475 496.38434838 -304.50170898 463.28588867 C-304.49787429 460.70549711 -304.49224554 458.12510771 -304.48498535 455.54472351 C-304.47203545 450.03830753 -304.47295904 444.5320441 -304.48357964 439.02562523 C-304.49870047 431.03539837 -304.48847044 423.04534561 -304.47206045 415.05512837 C-304.44573285 402.04512961 -304.43473546 389.03517049 -304.43579102 376.02514648 C-304.43584934 375.25029737 -304.43590766 374.47544826 -304.43596775 373.67711888 C-304.43623353 370.53865768 -304.43655079 367.40019649 -304.43693101 364.2617353 C-304.43789689 355.62981193 -304.43656896 346.99788976 -304.43383789 338.3659668 C-304.43347805 337.20651244 -304.43347805 337.20651244 -304.43311094 336.02363475 C-304.42867883 323.05809299 -304.4123477 310.09258762 -304.3886171 297.12706739 C-304.37468597 289.17329084 -304.37153897 281.21965453 -304.38323999 273.26587353 C-304.39154228 267.14976319 -304.38459017 261.03375243 -304.37255096 254.91765022 C-304.37017546 252.43756941 -304.3727692 249.95747712 -304.38115883 247.47740936 C-304.45225366 225.09400234 -302.78767381 202.90652698 -298 181 C-297.86513184 180.34483398 -297.73026367 179.68966797 -297.59130859 179.01464844 C-292.61034881 154.85096118 -283.43921859 130.15403813 -269 110 C-268.37738281 109.10796875 -267.75476563 108.2159375 -267.11328125 107.296875 C-265.12085988 104.49417617 -263.07698802 101.74052483 -261 99 C-260.36964844 98.16210938 -259.73929688 97.32421875 -259.08984375 96.4609375 C-242.575919 75.39693329 -221.87951524 59.55112976 -199 46 C-198.16936035 45.5064502 -197.3387207 45.01290039 -196.48291016 44.50439453 C-176.71368819 32.90408537 -155.03421318 23.39552374 -133 17 C-132.22269531 16.77151367 -131.44539063 16.54302734 -130.64453125 16.30761719 C-87.36158149 3.68615188 -45.01871416 0 0 0 Z " fill="#6265F0" transform="translate(558,396)"/>
<path d="M0 0 C180.85657371 0 180.85657371 0 198.12109375 15.9609375 C211.26928392 29.73049772 214.15402664 47.14015536 214.14044189 65.40921021 C214.14341302 66.6596694 214.14638414 67.91012859 214.1494453 69.19848049 C214.15748137 72.65785437 214.15930297 76.11720747 214.16004276 79.57658958 C214.16189925 83.31227037 214.16944956 87.04794052 214.17617798 90.78361511 C214.18973768 98.94703478 214.19578233 107.11044952 214.20018864 115.27387857 C214.20295506 120.37519211 214.20719313 125.47650375 214.21169281 130.57781601 C214.22388238 144.71349277 214.23418232 158.84916803 214.2375679 172.98484993 C214.23789725 174.34091068 214.23789725 174.34091068 214.23823325 175.7243666 C214.23845153 176.63051796 214.23866981 177.53666932 214.2388947 178.47027981 C214.23933816 180.30635842 214.23978472 182.14243702 214.24023438 183.97851562 C214.24056652 185.34464091 214.24056652 185.34464091 214.24090537 186.73836468 C214.24485168 201.48900679 214.262302 216.23959945 214.2855939 230.99022247 C214.30933724 246.14962517 214.32177111 261.30900309 214.32293582 276.46842468 C214.3238509 284.9737498 214.32956112 293.47901047 214.34775543 301.98431778 C214.36319672 309.22796899 214.3682532 316.47153583 214.36001733 323.71520038 C214.35612504 327.40695891 214.35697036 331.09854774 214.37107468 334.79028511 C214.3862653 338.80327369 214.37790518 342.81588411 214.36749268 346.82888794 C214.37957728 348.55670696 214.37957728 348.55670696 214.39190602 350.31943142 C214.2910073 367.02352829 209.47115129 384.48783672 198 397 C194.84635843 399.69237762 191.56900349 401.89786849 188 404 C187.38898438 404.38671875 186.77796875 404.7734375 186.1484375 405.171875 C132.26740908 436.02885163 62.09120896 412 0 412 C0 276.04 0 140.08 0 0 Z " fill="#0F0F0F" transform="translate(893,466)"/>
<path d="M0 0 C0.33 0 0.66 0 1 0 C1 47.19 1 94.38 1 143 C-46.19 143 -93.38 143 -142 143 C-142 142.67 -142 142.34 -142 142 C-140.86304688 141.82984375 -139.72609375 141.6596875 -138.5546875 141.484375 C-112.98681217 137.52923121 -88.33066619 128.89415322 -67 114 C-66.03320312 113.33097656 -65.06640625 112.66195313 -64.0703125 111.97265625 C-49.14836284 101.08819172 -35.85892047 87.63874581 -26 72 C-25.61553711 71.40654785 -25.23107422 70.8130957 -24.83496094 70.20166016 C-11.09215777 48.90879846 -3.15569533 25.09705933 0 0 Z " fill="#000000" transform="translate(1999,1857)"/>
<path d="M0 0 C0.33 0 0.66 0 1 0 C1.17015625 1.13695312 1.3403125 2.27390625 1.515625 3.4453125 C5.47076879 29.01318783 14.10584678 53.66933381 29 75 C29.66902344 75.96679688 30.33804687 76.93359375 31.02734375 77.9296875 C41.91180828 92.85163716 55.36125419 106.14107953 71 116 C71.59345215 116.38446289 72.1869043 116.76892578 72.79833984 117.16503906 C94.09120154 130.90784223 117.90294067 138.84430467 143 142 C143 142.33 143 142.66 143 143 C95.81 143 48.62 143 0 143 C0 95.81 0 48.62 0 0 Z " fill="#000000" transform="translate(0,1857)"/>
<path d="M0 0 C47.19 0 94.38 0 143 0 C143 47.19 143 94.38 143 143 C142.67 143 142.34 143 142 143 C141.82984375 141.86304688 141.6596875 140.72609375 141.484375 139.5546875 C137.52923121 113.98681217 128.89415322 89.33066619 114 68 C113.33097656 67.03320312 112.66195313 66.06640625 111.97265625 65.0703125 C101.08819172 50.14836284 87.63874581 36.85892047 72 27 C71.40654785 26.61553711 70.8130957 26.23107422 70.20166016 25.83496094 C48.90879846 12.09215777 25.09705933 4.15569533 0 1 C0 0.67 0 0.34 0 0 Z " fill="#000000" transform="translate(1857,0)"/>
<path d="M0 0 C47.19 0 94.38 0 143 0 C143 0.33 143 0.66 143 1 C141.86304688 1.17015625 140.72609375 1.3403125 139.5546875 1.515625 C113.98681217 5.47076879 89.33066619 14.10584678 68 29 C67.03320312 29.66902344 66.06640625 30.33804687 65.0703125 31.02734375 C50.14836284 41.91180828 36.85892047 55.36125419 27 71 C26.61553711 71.59345215 26.23107422 72.1869043 25.83496094 72.79833984 C12.09215777 94.09120154 4.15569533 117.90294067 1 143 C0.67 143 0.34 143 0 143 C0 95.81 0 48.62 0 0 Z " fill="#000000" transform="translate(0,0)"/>
</svg>
